<svg width="120" height="120" viewBox="0 0 120 120" fill="none" xmlns="http://www.w3.org/2000/svg">
<path d="M9 12.6316C4.03688 12.6316 0 16.6685 0 21.6316V33.6316C0 35.2891 1.3425 36.6316 3 36.6316H18V21.6316C18 16.6685 13.9631 12.6316 9 12.6316ZM48 89.9884V78.6316H102V30.6316C102 20.7053 93.9262 12.6316 84 12.6316H20.9231C22.8263 15.146 24 18.2416 24 21.6316V90.6316C24 97.9197 30.4969 103.691 38.0156 102.467C43.9162 101.507 48 95.9678 48 89.9884ZM54 84.6316V90.6316C54 100.556 45.9263 108.632 36 108.632H99C110.599 108.632 120 99.2303 120 87.6316C120 85.9741 118.658 84.6316 117 84.6316H54Z" fill="#171219"/>
</svg>
