<svg width="120" height="122" viewBox="0 0 120 122" fill="none" xmlns="http://www.w3.org/2000/svg">
<path d="M25.27 20.6198C23.409 21.4247 2 54.8403 2 54.8403C2 54.8403 8.50575 118.17 10.2129 118.262C11.9201 118.355 70.8973 37.9582 70.8973 37.9582C70.8973 37.9582 27.1309 19.8149 25.27 20.6198Z" fill="#171219"/>
<path d="M90.0608 121H18.4259C15.8882 121 75.4601 45.2586 75.4601 45.2586C75.4601 45.2586 92.6037 121 90.0608 121Z" fill="#171219"/>
<path d="M111.962 31.5703C110.819 30.099 81.8479 37.9582 81.8479 37.9582L97.8175 120.087C97.8175 120.087 111.783 106.45 117.073 97.8531C122.364 89.2556 113.105 33.0417 111.962 31.5703Z" fill="#171219"/>
<path d="M34.3954 15.1445C35.067 17.1695 77.2852 31.5703 77.2852 31.5703C77.2852 31.5703 106.492 25.7669 107.856 24.7262C109.219 23.6855 80.4791 1 80.4791 1H64.9658C64.9658 1 33.7238 13.1195 34.3954 15.1445Z" fill="#171219"/>
<path d="M25.27 20.6198C23.409 21.4247 2 54.8403 2 54.8403C2 54.8403 8.50575 118.17 10.2129 118.262C11.9201 118.355 70.8973 37.9582 70.8973 37.9582C70.8973 37.9582 27.1309 19.8149 25.27 20.6198Z" stroke="#171219" stroke-width="0.608365"/>
<path d="M90.0608 121H18.4259C15.8882 121 75.4601 45.2586 75.4601 45.2586C75.4601 45.2586 92.6037 121 90.0608 121Z" stroke="#171219" stroke-width="0.608365"/>
<path d="M111.962 31.5703C110.819 30.099 81.8479 37.9582 81.8479 37.9582L97.8175 120.087C97.8175 120.087 111.783 106.45 117.073 97.8531C122.364 89.2556 113.105 33.0417 111.962 31.5703Z" stroke="#171219" stroke-width="0.608365"/>
<path d="M34.3954 15.1445C35.067 17.1695 77.2852 31.5703 77.2852 31.5703C77.2852 31.5703 106.492 25.7669 107.856 24.7262C109.219 23.6855 80.4791 1 80.4791 1H64.9658C64.9658 1 33.7238 13.1195 34.3954 15.1445Z" stroke="#171219" stroke-width="0.608365"/>
</svg>
