<svg width="120" height="120" viewBox="0 0 120 120" fill="none" xmlns="http://www.w3.org/2000/svg">
<path d="M71.837 59.1667L110.842 20.1596C111.941 19.0604 111.941 17.2792 110.842 16.1823C103.154 8.4948 90.6878 8.4948 83.0003 16.1823L55.9276 43.2573L50.1011 37.4307C51.1112 34.8714 51.6667 32.0846 51.6667 29.1667C51.6667 16.7401 41.5933 6.66667 29.1667 6.66667C16.7401 6.66667 6.66672 16.7401 6.66672 29.1667C6.66672 41.5932 16.7401 51.6667 29.1667 51.6667C30.2308 51.6667 31.2737 51.5917 32.298 51.4487L40.0159 59.1667L32.298 66.8846C31.2737 66.7417 30.2284 66.6667 29.1667 66.6667C16.7401 66.6667 6.66672 76.7401 6.66672 89.1667C6.66672 101.593 16.7401 111.667 29.1667 111.667C41.5933 111.667 51.6667 101.593 51.6667 89.1667C51.6667 86.2487 51.1112 83.462 50.1011 80.9026L55.9276 75.076L83.0003 102.151C90.6878 109.839 103.154 109.839 110.842 102.151C111.941 101.054 111.941 99.2729 110.842 98.1737L71.837 59.1667ZM29.1667 36.6667C25.0323 36.6667 21.6667 33.301 21.6667 29.1667C21.6667 25.0323 25.0323 21.6667 29.1667 21.6667C33.3011 21.6667 36.6667 25.0323 36.6667 29.1667C36.6667 33.301 33.3011 36.6667 29.1667 36.6667ZM29.1667 96.6667C25.0323 96.6667 21.6667 93.301 21.6667 89.1667C21.6667 85.0323 25.0323 81.6667 29.1667 81.6667C33.3011 81.6667 36.6667 85.0323 36.6667 89.1667C36.6667 93.301 33.3011 96.6667 29.1667 96.6667Z" fill="#171219"/>
</svg>
